<?xml version="1.0" standalone="no"?>
<!DOCTYPE svg PUBLIC "-//W3C//DTD SVG 20010904//EN"
 "http://www.w3.org/TR/2001/REC-SVG-20010904/DTD/svg10.dtd">
<svg version="1.0" xmlns="http://www.w3.org/2000/svg"
 width="16.000000pt" height="16.000000pt" viewBox="0 0 16.000000 16.000000"
 preserveAspectRatio="xMidYMid meet">
<metadata>
Created by potrace 1.11, written by Peter Selinger 2001-2013
</metadata>
<g transform="translate(0.000000,16.000000) scale(0.006154,-0.006154)"
fill="#000000" stroke="none">
<path d="M1248 2488 c-42 -39 -92 -83 -213 -188 -22 -19 -45 -39 -51 -45 -6
-5 -42 -38 -80 -71 -38 -34 -81 -73 -95 -85 -14 -13 -41 -37 -60 -54 -19 -16
-72 -64 -119 -105 -139 -123 -144 -128 -166 -147 -43 -36 -169 -149 -195 -173
-15 -14 -36 -32 -46 -40 -37 -31 -188 -165 -204 -182 -18 -17 -11 -28 93 -140
l27 -29 48 44 c26 25 91 82 143 128 52 46 100 88 106 93 6 6 37 34 69 61 32
28 66 57 74 66 9 9 59 53 111 99 52 45 128 112 169 149 41 36 82 73 91 81 95
83 147 129 170 150 15 14 53 48 85 75 32 28 64 56 71 63 7 6 18 12 24 12 11 0
115 -88 191 -160 14 -14 55 -50 89 -80 35 -30 71 -62 80 -70 10 -8 43 -37 75
-65 32 -27 63 -55 69 -60 6 -6 52 -47 101 -90 50 -44 95 -84 101 -90 12 -11
70 -63 304 -269 l155 -137 24 28 c13 15 44 50 68 77 l44 48 -23 20 c-13 11
-41 36 -64 56 -22 20 -71 64 -109 97 -37 33 -80 71 -94 84 -14 12 -57 51 -96
85 -38 33 -92 81 -120 106 -28 25 -84 74 -125 110 -40 36 -78 70 -84 75 -22
20 -172 152 -205 181 -19 16 -41 36 -50 44 -9 9 -52 47 -96 85 -44 39 -89 79
-101 90 -36 34 -126 110 -133 113 -3 1 -27 -17 -53 -40z"/>
<path d="M391 2350 c-7 -15 -7 -458 0 -465 2 -2 27 18 55 43 72 66 212 193
241 218 23 19 25 29 27 113 1 50 -1 95 -4 99 -3 4 -74 7 -158 7 -127 0 -155
-3 -161 -15z"/>
<path d="M1240 2032 c-30 -26 -66 -56 -79 -67 -13 -11 -35 -31 -50 -45 -14
-14 -62 -56 -106 -95 -44 -38 -85 -74 -91 -80 -6 -5 -37 -32 -68 -60 -32 -27
-73 -63 -90 -80 -18 -16 -59 -52 -91 -80 -32 -27 -63 -55 -70 -62 -6 -6 -56
-50 -110 -97 l-98 -86 0 -585 c0 -551 1 -586 18 -605 17 -19 31 -20 312 -20
l293 0 0 93 c1 50 1 166 1 257 -1 129 3 169 14 187 l15 23 260 0 260 0 15 -23
c11 -17 15 -50 14 -123 0 -54 0 -170 0 -256 l1 -158 294 0 c254 0 297 2 310
16 20 19 17 -55 18 621 1 479 -1 574 -13 585 -8 7 -50 44 -94 83 -44 38 -98
86 -120 106 -119 107 -201 179 -319 282 -12 10 -37 33 -56 50 -19 18 -69 61
-110 97 -41 36 -82 72 -90 80 -35 35 -101 90 -108 90 -4 0 -32 -22 -62 -48z"/>
</g>
</svg>
